<svg width="228" height="260" viewBox="0 0 228 260" fill="none" xmlns="http://www.w3.org/2000/svg">
<rect y="70" width="228" height="190" rx="24" fill="url(#paint0_linear_439_1161)"/>
<path d="M28.3146 188C27.6333 188 27.092 187.837 26.6906 187.51C26.2893 187.174 26.0886 186.581 26.0886 185.732V182.302H24.8986V181.056H26.0886L26.2706 179.292H27.5726V181.056H29.5326V182.302H27.5726V185.732C27.5726 186.115 27.652 186.381 27.8106 186.53C27.9786 186.67 28.2633 186.74 28.6646 186.74H29.4626V188H28.3146ZM33.8531 188.168C33.1904 188.168 32.5931 188.019 32.0611 187.72C31.5384 187.412 31.1231 186.987 30.8151 186.446C30.5071 185.895 30.3531 185.256 30.3531 184.528C30.3531 183.8 30.5071 183.165 30.8151 182.624C31.1324 182.073 31.5571 181.649 32.0891 181.35C32.6211 181.042 33.2137 180.888 33.8671 180.888C34.5297 180.888 35.1224 181.042 35.6451 181.35C36.1771 181.649 36.5971 182.073 36.9051 182.624C37.2224 183.165 37.3811 183.8 37.3811 184.528C37.3811 185.256 37.2224 185.895 36.9051 186.446C36.5971 186.987 36.1771 187.412 35.6451 187.72C35.1131 188.019 34.5157 188.168 33.8531 188.168ZM33.8531 186.894C34.2077 186.894 34.5344 186.805 34.8331 186.628C35.1411 186.451 35.3884 186.189 35.5751 185.844C35.7617 185.489 35.8551 185.051 35.8551 184.528C35.8551 184.005 35.7617 183.571 35.5751 183.226C35.3977 182.871 35.1551 182.605 34.8471 182.428C34.5484 182.251 34.2217 182.162 33.8671 182.162C33.5124 182.162 33.1811 182.251 32.8731 182.428C32.5744 182.605 32.3317 182.871 32.1451 183.226C31.9584 183.571 31.8651 184.005 31.8651 184.528C31.8651 185.051 31.9584 185.489 32.1451 185.844C32.3317 186.189 32.5744 186.451 32.8731 186.628C33.1717 186.805 33.4984 186.894 33.8531 186.894ZM44.7953 185.872C44.4313 185.872 44.0953 185.83 43.7873 185.746L43.1853 186.334C43.2879 186.399 43.4139 186.455 43.5633 186.502C43.7126 186.549 43.9226 186.591 44.1933 186.628C44.4639 186.665 44.8326 186.703 45.2993 186.74C46.2233 186.824 46.8906 187.048 47.3013 187.412C47.7119 187.767 47.9173 188.243 47.9173 188.84C47.9173 189.251 47.8053 189.638 47.5813 190.002C47.3666 190.375 47.0259 190.674 46.5593 190.898C46.1019 191.131 45.5139 191.248 44.7953 191.248C43.8246 191.248 43.0359 191.061 42.4293 190.688C41.8319 190.324 41.5333 189.769 41.5333 189.022C41.5333 188.733 41.6079 188.443 41.7573 188.154C41.9159 187.874 42.1633 187.608 42.4993 187.356C42.3033 187.272 42.1306 187.183 41.9813 187.09C41.8413 186.987 41.7153 186.885 41.6033 186.782V186.446L42.8073 185.214C42.2659 184.747 41.9953 184.136 41.9953 183.38C41.9953 182.923 42.1026 182.507 42.3173 182.134C42.5413 181.751 42.8633 181.448 43.2833 181.224C43.7033 181 44.2073 180.888 44.7953 180.888C45.1873 180.888 45.5513 180.944 45.8873 181.056H48.4773V182.036L47.2453 182.106C47.4693 182.489 47.5813 182.913 47.5813 183.38C47.5813 183.847 47.4693 184.267 47.2453 184.64C47.0306 185.013 46.7133 185.312 46.2933 185.536C45.8826 185.76 45.3833 185.872 44.7953 185.872ZM44.7953 184.71C45.2246 184.71 45.5699 184.598 45.8313 184.374C46.1019 184.141 46.2373 183.814 46.2373 183.394C46.2373 182.965 46.1019 182.638 45.8313 182.414C45.5699 182.19 45.2246 182.078 44.7953 182.078C44.3566 182.078 44.0019 182.19 43.7313 182.414C43.4699 182.638 43.3393 182.965 43.3393 183.394C43.3393 183.814 43.4699 184.141 43.7313 184.374C44.0019 184.598 44.3566 184.71 44.7953 184.71ZM42.9333 188.882C42.9333 189.283 43.1106 189.582 43.4653 189.778C43.8199 189.983 44.2633 190.086 44.7953 190.086C45.3086 190.086 45.7239 189.974 46.0413 189.75C46.3586 189.535 46.5173 189.246 46.5173 188.882C46.5173 188.611 46.4099 188.378 46.1953 188.182C45.9806 187.995 45.5746 187.879 44.9773 187.832C44.5293 187.804 44.1326 187.762 43.7873 187.706C43.4606 187.883 43.2366 188.075 43.1153 188.28C42.9939 188.485 42.9333 188.686 42.9333 188.882ZM52.4955 188.168C51.8142 188.168 51.2075 188.019 50.6755 187.72C50.1528 187.412 49.7422 186.987 49.4435 186.446C49.1448 185.905 48.9955 185.275 48.9955 184.556C48.9955 183.828 49.1402 183.189 49.4295 182.638C49.7282 182.087 50.1388 181.658 50.6615 181.35C51.1935 181.042 51.8095 180.888 52.5095 180.888C53.1908 180.888 53.7835 181.042 54.2875 181.35C54.7915 181.649 55.1835 182.05 55.4635 182.554C55.7435 183.058 55.8835 183.613 55.8835 184.22C55.8835 184.313 55.8788 184.416 55.8695 184.528C55.8695 184.631 55.8648 184.747 55.8555 184.878H50.4515C50.4982 185.55 50.7175 186.063 51.1095 186.418C51.5108 186.763 51.9728 186.936 52.4955 186.936C52.9155 186.936 53.2655 186.843 53.5455 186.656C53.8348 186.46 54.0495 186.199 54.1895 185.872H55.6735C55.4868 186.525 55.1135 187.071 54.5535 187.51C54.0028 187.949 53.3168 188.168 52.4955 188.168ZM52.4955 182.106C52.0008 182.106 51.5622 182.255 51.1795 182.554C50.7968 182.843 50.5635 183.282 50.4795 183.87H54.3995C54.3715 183.329 54.1802 182.899 53.8255 182.582C53.4708 182.265 53.0275 182.106 52.4955 182.106ZM59.8775 188C59.1962 188 58.6549 187.837 58.2535 187.51C57.8522 187.174 57.6515 186.581 57.6515 185.732V182.302H56.4615V181.056H57.6515L57.8335 179.292H59.1355V181.056H61.0955V182.302H59.1355V185.732C59.1355 186.115 59.2149 186.381 59.3735 186.53C59.5415 186.67 59.8262 186.74 60.2275 186.74H61.0255V188H59.8775ZM67.945 188.168C67.357 188.168 66.8717 188.07 66.489 187.874C66.1064 187.678 65.8217 187.421 65.635 187.104C65.4484 186.777 65.355 186.423 65.355 186.04C65.355 185.368 65.6164 184.836 66.139 184.444C66.6617 184.052 67.4084 183.856 68.379 183.856H70.199V183.73C70.199 183.189 70.0497 182.783 69.751 182.512C69.4617 182.241 69.0837 182.106 68.617 182.106C68.2064 182.106 67.847 182.209 67.539 182.414C67.2404 182.61 67.0584 182.904 66.993 183.296H65.509C65.5557 182.792 65.7237 182.363 66.013 182.008C66.3117 181.644 66.685 181.369 67.133 181.182C67.5904 180.986 68.0897 180.888 68.631 180.888C69.6017 180.888 70.353 181.145 70.885 181.658C71.417 182.162 71.683 182.853 71.683 183.73V188H70.395L70.269 186.81C70.073 187.193 69.7884 187.515 69.415 187.776C69.0417 188.037 68.5517 188.168 67.945 188.168ZM68.239 186.964C68.6404 186.964 68.9764 186.871 69.247 186.684C69.527 186.488 69.7417 186.231 69.891 185.914C70.0497 185.597 70.1477 185.247 70.185 184.864H68.533C67.945 184.864 67.525 184.967 67.273 185.172C67.0304 185.377 66.909 185.634 66.909 185.942C66.909 186.259 67.0257 186.511 67.259 186.698C67.5017 186.875 67.8284 186.964 68.239 186.964ZM76.4233 188.168C75.742 188.168 75.1307 188.014 74.5893 187.706C74.0573 187.398 73.6373 186.973 73.3293 186.432C73.0307 185.881 72.8813 185.247 72.8813 184.528C72.8813 183.809 73.0307 183.179 73.3293 182.638C73.6373 182.087 74.0573 181.658 74.5893 181.35C75.1307 181.042 75.742 180.888 76.4233 180.888C77.282 180.888 78.0007 181.112 78.5793 181.56C79.1673 182.008 79.5453 182.615 79.7133 183.38H78.1593C78.066 182.997 77.8607 182.699 77.5433 182.484C77.226 182.269 76.8527 182.162 76.4233 182.162C76.0593 182.162 75.7233 182.255 75.4153 182.442C75.1073 182.619 74.86 182.885 74.6733 183.24C74.4867 183.585 74.3933 184.015 74.3933 184.528C74.3933 185.041 74.4867 185.475 74.6733 185.83C74.86 186.175 75.1073 186.441 75.4153 186.628C75.7233 186.815 76.0593 186.908 76.4233 186.908C76.8527 186.908 77.226 186.801 77.5433 186.586C77.8607 186.371 78.066 186.068 78.1593 185.676H79.7133C79.5547 186.423 79.1813 187.025 78.5933 187.482C78.0053 187.939 77.282 188.168 76.4233 188.168ZM84.3328 188.168C83.6515 188.168 83.0401 188.014 82.4988 187.706C81.9668 187.398 81.5468 186.973 81.2388 186.432C80.9401 185.881 80.7908 185.247 80.7908 184.528C80.7908 183.809 80.9401 183.179 81.2388 182.638C81.5468 182.087 81.9668 181.658 82.4988 181.35C83.0401 181.042 83.6515 180.888 84.3328 180.888C85.1915 180.888 85.9101 181.112 86.4888 181.56C87.0768 182.008 87.4548 182.615 87.6228 183.38H86.0688C85.9755 182.997 85.7701 182.699 85.4528 182.484C85.1355 182.269 84.7621 182.162 84.3328 182.162C83.9688 182.162 83.6328 182.255 83.3248 182.442C83.0168 182.619 82.7695 182.885 82.5828 183.24C82.3961 183.585 82.3028 184.015 82.3028 184.528C82.3028 185.041 82.3961 185.475 82.5828 185.83C82.7695 186.175 83.0168 186.441 83.3248 186.628C83.6328 186.815 83.9688 186.908 84.3328 186.908C84.7621 186.908 85.1355 186.801 85.4528 186.586C85.7701 186.371 85.9755 186.068 86.0688 185.676H87.6228C87.4641 186.423 87.0908 187.025 86.5028 187.482C85.9148 187.939 85.1915 188.168 84.3328 188.168ZM92.2003 188.168C91.5189 188.168 90.9123 188.019 90.3803 187.72C89.8576 187.412 89.4469 186.987 89.1483 186.446C88.8496 185.905 88.7003 185.275 88.7003 184.556C88.7003 183.828 88.8449 183.189 89.1343 182.638C89.4329 182.087 89.8436 181.658 90.3663 181.35C90.8983 181.042 91.5143 180.888 92.2143 180.888C92.8956 180.888 93.4883 181.042 93.9923 181.35C94.4963 181.649 94.8883 182.05 95.1683 182.554C95.4483 183.058 95.5883 183.613 95.5883 184.22C95.5883 184.313 95.5836 184.416 95.5743 184.528C95.5743 184.631 95.5696 184.747 95.5603 184.878H90.1563C90.2029 185.55 90.4223 186.063 90.8143 186.418C91.2156 186.763 91.6776 186.936 92.2003 186.936C92.6203 186.936 92.9703 186.843 93.2503 186.656C93.5396 186.46 93.7543 186.199 93.8943 185.872H95.3783C95.1916 186.525 94.8183 187.071 94.2583 187.51C93.7076 187.949 93.0216 188.168 92.2003 188.168ZM92.2003 182.106C91.7056 182.106 91.2669 182.255 90.8843 182.554C90.5016 182.843 90.2683 183.282 90.1843 183.87H94.1043C94.0763 183.329 93.8849 182.899 93.5303 182.582C93.1756 182.265 92.7323 182.106 92.2003 182.106ZM99.62 188.168C98.7427 188.168 98.0194 187.953 97.45 187.524C96.8807 187.095 96.554 186.525 96.47 185.816H97.968C98.0427 186.133 98.22 186.409 98.5 186.642C98.78 186.866 99.1487 186.978 99.606 186.978C100.054 186.978 100.381 186.885 100.586 186.698C100.791 186.511 100.894 186.297 100.894 186.054C100.894 185.699 100.749 185.461 100.46 185.34C100.18 185.209 99.788 185.093 99.284 184.99C98.892 184.906 98.5 184.794 98.108 184.654C97.7254 184.514 97.4034 184.318 97.142 184.066C96.89 183.805 96.764 183.455 96.764 183.016C96.764 182.409 96.9974 181.905 97.464 181.504C97.9307 181.093 98.584 180.888 99.424 180.888C100.199 180.888 100.824 181.075 101.3 181.448C101.785 181.821 102.07 182.349 102.154 183.03H100.726C100.679 182.731 100.539 182.498 100.306 182.33C100.082 182.162 99.7787 182.078 99.396 182.078C99.0227 182.078 98.7334 182.157 98.528 182.316C98.3227 182.465 98.22 182.661 98.22 182.904C98.22 183.147 98.36 183.338 98.64 183.478C98.9294 183.618 99.3074 183.744 99.774 183.856C100.241 183.959 100.67 184.08 101.062 184.22C101.463 184.351 101.785 184.547 102.028 184.808C102.271 185.069 102.392 185.452 102.392 185.956C102.401 186.591 102.154 187.118 101.65 187.538C101.155 187.958 100.479 188.168 99.62 188.168ZM106.504 188.168C105.627 188.168 104.903 187.953 104.334 187.524C103.765 187.095 103.438 186.525 103.354 185.816H104.852C104.927 186.133 105.104 186.409 105.384 186.642C105.664 186.866 106.033 186.978 106.49 186.978C106.938 186.978 107.265 186.885 107.47 186.698C107.675 186.511 107.778 186.297 107.778 186.054C107.778 185.699 107.633 185.461 107.344 185.34C107.064 185.209 106.672 185.093 106.168 184.99C105.776 184.906 105.384 184.794 104.992 184.654C104.609 184.514 104.287 184.318 104.026 184.066C103.774 183.805 103.648 183.455 103.648 183.016C103.648 182.409 103.881 181.905 104.348 181.504C104.815 181.093 105.468 180.888 106.308 180.888C107.083 180.888 107.708 181.075 108.184 181.448C108.669 181.821 108.954 182.349 109.038 183.03H107.61C107.563 182.731 107.423 182.498 107.19 182.33C106.966 182.162 106.663 182.078 106.28 182.078C105.907 182.078 105.617 182.157 105.412 182.316C105.207 182.465 105.104 182.661 105.104 182.904C105.104 183.147 105.244 183.338 105.524 183.478C105.813 183.618 106.191 183.744 106.658 183.856C107.125 183.959 107.554 184.08 107.946 184.22C108.347 184.351 108.669 184.547 108.912 184.808C109.155 185.069 109.276 185.452 109.276 185.956C109.285 186.591 109.038 187.118 108.534 187.538C108.039 187.958 107.363 188.168 106.504 188.168ZM116.776 188C116.094 188 115.553 187.837 115.152 187.51C114.75 187.174 114.55 186.581 114.55 185.732V182.302H113.36V181.056H114.55L114.732 179.292H116.034V181.056H117.994V182.302H116.034V185.732C116.034 186.115 116.113 186.381 116.272 186.53C116.44 186.67 116.724 186.74 117.126 186.74H117.924V188H116.776ZM122.314 188.168C121.651 188.168 121.054 188.019 120.522 187.72C119.999 187.412 119.584 186.987 119.276 186.446C118.968 185.895 118.814 185.256 118.814 184.528C118.814 183.8 118.968 183.165 119.276 182.624C119.593 182.073 120.018 181.649 120.55 181.35C121.082 181.042 121.675 180.888 122.328 180.888C122.991 180.888 123.583 181.042 124.106 181.35C124.638 181.649 125.058 182.073 125.366 182.624C125.683 183.165 125.842 183.8 125.842 184.528C125.842 185.256 125.683 185.895 125.366 186.446C125.058 186.987 124.638 187.412 124.106 187.72C123.574 188.019 122.977 188.168 122.314 188.168ZM122.314 186.894C122.669 186.894 122.995 186.805 123.294 186.628C123.602 186.451 123.849 186.189 124.036 185.844C124.223 185.489 124.316 185.051 124.316 184.528C124.316 184.005 124.223 183.571 124.036 183.226C123.859 182.871 123.616 182.605 123.308 182.428C123.009 182.251 122.683 182.162 122.328 182.162C121.973 182.162 121.642 182.251 121.334 182.428C121.035 182.605 120.793 182.871 120.606 183.226C120.419 183.571 120.326 184.005 120.326 184.528C120.326 185.051 120.419 185.489 120.606 185.844C120.793 186.189 121.035 186.451 121.334 186.628C121.633 186.805 121.959 186.894 122.314 186.894ZM132.766 188.168C132.178 188.168 131.693 188.07 131.31 187.874C130.927 187.678 130.643 187.421 130.456 187.104C130.269 186.777 130.176 186.423 130.176 186.04C130.176 185.368 130.437 184.836 130.96 184.444C131.483 184.052 132.229 183.856 133.2 183.856H135.02V183.73C135.02 183.189 134.871 182.783 134.572 182.512C134.283 182.241 133.905 182.106 133.438 182.106C133.027 182.106 132.668 182.209 132.36 182.414C132.061 182.61 131.879 182.904 131.814 183.296H130.33C130.377 182.792 130.545 182.363 130.834 182.008C131.133 181.644 131.506 181.369 131.954 181.182C132.411 180.986 132.911 180.888 133.452 180.888C134.423 180.888 135.174 181.145 135.706 181.658C136.238 182.162 136.504 182.853 136.504 183.73V188H135.216L135.09 186.81C134.894 187.193 134.609 187.515 134.236 187.776C133.863 188.037 133.373 188.168 132.766 188.168ZM133.06 186.964C133.461 186.964 133.797 186.871 134.068 186.684C134.348 186.488 134.563 186.231 134.712 185.914C134.871 185.597 134.969 185.247 135.006 184.864H133.354C132.766 184.864 132.346 184.967 132.094 185.172C131.851 185.377 131.73 185.634 131.73 185.942C131.73 186.259 131.847 186.511 132.08 186.698C132.323 186.875 132.649 186.964 133.06 186.964ZM137.954 188V177.92H139.438V188H137.954ZM141.038 188V177.92H142.522V188H141.038ZM147.718 188V182.302H146.724V181.056H147.718V180.048C147.718 179.292 147.905 178.751 148.278 178.424C148.661 178.088 149.198 177.92 149.888 177.92H150.616V179.18H150.112C149.786 179.18 149.552 179.25 149.412 179.39C149.272 179.521 149.202 179.745 149.202 180.062V181.056H150.798V182.302H149.202V188H147.718ZM154.903 188.168C154.221 188.168 153.615 188.019 153.083 187.72C152.56 187.412 152.149 186.987 151.851 186.446C151.552 185.905 151.403 185.275 151.403 184.556C151.403 183.828 151.547 183.189 151.837 182.638C152.135 182.087 152.546 181.658 153.069 181.35C153.601 181.042 154.217 180.888 154.917 180.888C155.598 180.888 156.191 181.042 156.695 181.35C157.199 181.649 157.591 182.05 157.871 182.554C158.151 183.058 158.291 183.613 158.291 184.22C158.291 184.313 158.286 184.416 158.277 184.528C158.277 184.631 158.272 184.747 158.263 184.878H152.859C152.905 185.55 153.125 186.063 153.517 186.418C153.918 186.763 154.38 186.936 154.903 186.936C155.323 186.936 155.673 186.843 155.953 186.656C156.242 186.46 156.457 186.199 156.597 185.872H158.081C157.894 186.525 157.521 187.071 156.961 187.51C156.41 187.949 155.724 188.168 154.903 188.168ZM154.903 182.106C154.408 182.106 153.969 182.255 153.587 182.554C153.204 182.843 152.971 183.282 152.887 183.87H156.807C156.779 183.329 156.587 182.899 156.233 182.582C155.878 182.265 155.435 182.106 154.903 182.106ZM161.903 188.168C161.315 188.168 160.829 188.07 160.447 187.874C160.064 187.678 159.779 187.421 159.593 187.104C159.406 186.777 159.313 186.423 159.313 186.04C159.313 185.368 159.574 184.836 160.097 184.444C160.619 184.052 161.366 183.856 162.337 183.856H164.157V183.73C164.157 183.189 164.007 182.783 163.709 182.512C163.419 182.241 163.041 182.106 162.575 182.106C162.164 182.106 161.805 182.209 161.497 182.414C161.198 182.61 161.016 182.904 160.951 183.296H159.467C159.513 182.792 159.681 182.363 159.971 182.008C160.269 181.644 160.643 181.369 161.091 181.182C161.548 180.986 162.047 180.888 162.589 180.888C163.559 180.888 164.311 181.145 164.843 181.658C165.375 182.162 165.641 182.853 165.641 183.73V188H164.353L164.227 186.81C164.031 187.193 163.746 187.515 163.373 187.776C162.999 188.037 162.509 188.168 161.903 188.168ZM162.197 186.964C162.598 186.964 162.934 186.871 163.205 186.684C163.485 186.488 163.699 186.231 163.849 185.914C164.007 185.597 164.105 185.247 164.143 184.864H162.491C161.903 184.864 161.483 184.967 161.231 185.172C160.988 185.377 160.867 185.634 160.867 185.942C160.867 186.259 160.983 186.511 161.217 186.698C161.459 186.875 161.786 186.964 162.197 186.964ZM169.866 188C169.185 188 168.643 187.837 168.242 187.51C167.841 187.174 167.64 186.581 167.64 185.732V182.302H166.45V181.056H167.64L167.822 179.292H169.124V181.056H171.084V182.302H169.124V185.732C169.124 186.115 169.203 186.381 169.362 186.53C169.53 186.67 169.815 186.74 170.216 186.74H171.014V188H169.866ZM174.896 188.168C174.056 188.168 173.394 187.907 172.908 187.384C172.432 186.861 172.194 186.082 172.194 185.046V181.056H173.678V184.892C173.678 186.236 174.229 186.908 175.33 186.908C175.881 186.908 176.334 186.712 176.688 186.32C177.043 185.928 177.22 185.368 177.22 184.64V181.056H178.704V188H177.388L177.276 186.782C177.062 187.211 176.744 187.552 176.324 187.804C175.914 188.047 175.438 188.168 174.896 188.168ZM180.312 188V181.056H181.642L181.768 182.372C182.011 181.915 182.347 181.555 182.776 181.294C183.215 181.023 183.742 180.888 184.358 180.888V182.442H183.952C183.541 182.442 183.173 182.512 182.846 182.652C182.529 182.783 182.272 183.011 182.076 183.338C181.889 183.655 181.796 184.099 181.796 184.668V188H180.312ZM188.407 188.168C187.726 188.168 187.119 188.019 186.587 187.72C186.064 187.412 185.654 186.987 185.355 186.446C185.056 185.905 184.907 185.275 184.907 184.556C184.907 183.828 185.052 183.189 185.341 182.638C185.64 182.087 186.05 181.658 186.573 181.35C187.105 181.042 187.721 180.888 188.421 180.888C189.102 180.888 189.695 181.042 190.199 181.35C190.703 181.649 191.095 182.05 191.375 182.554C191.655 183.058 191.795 183.613 191.795 184.22C191.795 184.313 191.79 184.416 191.781 184.528C191.781 184.631 191.776 184.747 191.767 184.878H186.363C186.41 185.55 186.629 186.063 187.021 186.418C187.422 186.763 187.884 186.936 188.407 186.936C188.827 186.936 189.177 186.843 189.457 186.656C189.746 186.46 189.961 186.199 190.101 185.872H191.585C191.398 186.525 191.025 187.071 190.465 187.51C189.914 187.949 189.228 188.168 188.407 188.168ZM188.407 182.106C187.912 182.106 187.474 182.255 187.091 182.554C186.708 182.843 186.475 183.282 186.391 183.87H190.311C190.283 183.329 190.092 182.899 189.737 182.582C189.382 182.265 188.939 182.106 188.407 182.106ZM195.827 188.168C194.95 188.168 194.226 187.953 193.657 187.524C193.088 187.095 192.761 186.525 192.677 185.816H194.175C194.25 186.133 194.427 186.409 194.707 186.642C194.987 186.866 195.356 186.978 195.813 186.978C196.261 186.978 196.588 186.885 196.793 186.698C196.998 186.511 197.101 186.297 197.101 186.054C197.101 185.699 196.956 185.461 196.667 185.34C196.387 185.209 195.995 185.093 195.491 184.99C195.099 184.906 194.707 184.794 194.315 184.654C193.932 184.514 193.61 184.318 193.349 184.066C193.097 183.805 192.971 183.455 192.971 183.016C192.971 182.409 193.204 181.905 193.671 181.504C194.138 181.093 194.791 180.888 195.631 180.888C196.406 180.888 197.031 181.075 197.507 181.448C197.992 181.821 198.277 182.349 198.361 183.03H196.933C196.886 182.731 196.746 182.498 196.513 182.33C196.289 182.162 195.986 182.078 195.603 182.078C195.23 182.078 194.94 182.157 194.735 182.316C194.53 182.465 194.427 182.661 194.427 182.904C194.427 183.147 194.567 183.338 194.847 183.478C195.136 183.618 195.514 183.744 195.981 183.856C196.448 183.959 196.877 184.08 197.269 184.22C197.67 184.351 197.992 184.547 198.235 184.808C198.478 185.069 198.599 185.452 198.599 185.956C198.608 186.591 198.361 187.118 197.857 187.538C197.362 187.958 196.686 188.168 195.827 188.168ZM200.247 185.102L200.079 178.2H201.675L201.507 185.102H200.247ZM200.919 188.084C200.63 188.084 200.392 187.995 200.205 187.818C200.028 187.631 199.939 187.412 199.939 187.16C199.939 186.899 200.028 186.679 200.205 186.502C200.392 186.315 200.63 186.222 200.919 186.222C201.19 186.222 201.414 186.315 201.591 186.502C201.778 186.679 201.871 186.899 201.871 187.16C201.871 187.412 201.778 187.631 201.591 187.818C201.414 187.995 201.19 188.084 200.919 188.084ZM32.6403 212.168C31.6697 212.168 30.8297 211.958 30.1203 211.538C29.4203 211.109 28.879 210.516 28.4963 209.76C28.1137 208.995 27.9223 208.113 27.9223 207.114C27.9223 206.106 28.1137 205.224 28.4963 204.468C28.879 203.703 29.4203 203.105 30.1203 202.676C30.8297 202.247 31.6697 202.032 32.6403 202.032C33.7883 202.032 34.7263 202.312 35.4543 202.872C36.1823 203.432 36.6443 204.216 36.8403 205.224H35.1883C35.0577 204.655 34.7777 204.202 34.3483 203.866C33.919 203.53 33.345 203.362 32.6263 203.362C31.6463 203.362 30.8717 203.698 30.3023 204.37C29.733 205.033 29.4483 205.947 29.4483 207.114C29.4483 208.271 29.733 209.181 30.3023 209.844C30.8717 210.507 31.6463 210.838 32.6263 210.838C33.345 210.838 33.919 210.679 34.3483 210.362C34.7777 210.045 35.0577 209.611 35.1883 209.06H36.8403C36.6443 210.031 36.1823 210.791 35.4543 211.342C34.7263 211.893 33.7883 212.168 32.6403 212.168ZM41.3835 212.168C40.7209 212.168 40.1235 212.019 39.5915 211.72C39.0689 211.412 38.6535 210.987 38.3455 210.446C38.0375 209.895 37.8835 209.256 37.8835 208.528C37.8835 207.8 38.0375 207.165 38.3455 206.624C38.6629 206.073 39.0875 205.649 39.6195 205.35C40.1515 205.042 40.7442 204.888 41.3975 204.888C42.0602 204.888 42.6529 205.042 43.1755 205.35C43.7075 205.649 44.1275 206.073 44.4355 206.624C44.7529 207.165 44.9115 207.8 44.9115 208.528C44.9115 209.256 44.7529 209.895 44.4355 210.446C44.1275 210.987 43.7075 211.412 43.1755 211.72C42.6435 212.019 42.0462 212.168 41.3835 212.168ZM41.3835 210.894C41.7382 210.894 42.0649 210.805 42.3635 210.628C42.6715 210.451 42.9189 210.189 43.1055 209.844C43.2922 209.489 43.3855 209.051 43.3855 208.528C43.3855 208.005 43.2922 207.571 43.1055 207.226C42.9282 206.871 42.6855 206.605 42.3775 206.428C42.0789 206.251 41.7522 206.162 41.3975 206.162C41.0429 206.162 40.7115 206.251 40.4035 206.428C40.1049 206.605 39.8622 206.871 39.6755 207.226C39.4889 207.571 39.3955 208.005 39.3955 208.528C39.3955 209.051 39.4889 209.489 39.6755 209.844C39.8622 210.189 40.1049 210.451 40.4035 210.628C40.7022 210.805 41.0289 210.894 41.3835 210.894ZM46.2364 212V205.056H47.5524L47.6644 206.274C47.8791 205.845 48.1917 205.509 48.6024 205.266C49.0224 205.014 49.5031 204.888 50.0444 204.888C50.8844 204.888 51.5424 205.149 52.0184 205.672C52.5037 206.195 52.7464 206.974 52.7464 208.01V212H51.2764V208.164C51.2764 206.82 50.7257 206.148 49.6244 206.148C49.0737 206.148 48.6164 206.344 48.2524 206.736C47.8977 207.128 47.7204 207.688 47.7204 208.416V212H46.2364ZM54.2142 212V205.056H55.5302L55.6422 206.274C55.8569 205.845 56.1695 205.509 56.5802 205.266C57.0002 205.014 57.4809 204.888 58.0222 204.888C58.8622 204.888 59.5202 205.149 59.9962 205.672C60.4815 206.195 60.7242 206.974 60.7242 208.01V212H59.2542V208.164C59.2542 206.82 58.7035 206.148 57.6022 206.148C57.0515 206.148 56.5942 206.344 56.2302 206.736C55.8755 207.128 55.6982 207.688 55.6982 208.416V212H54.2142ZM65.44 212.168C64.7587 212.168 64.152 212.019 63.62 211.72C63.0974 211.412 62.6867 210.987 62.388 210.446C62.0894 209.905 61.94 209.275 61.94 208.556C61.94 207.828 62.0847 207.189 62.374 206.638C62.6727 206.087 63.0834 205.658 63.606 205.35C64.138 205.042 64.754 204.888 65.454 204.888C66.1354 204.888 66.728 205.042 67.232 205.35C67.736 205.649 68.128 206.05 68.408 206.554C68.688 207.058 68.828 207.613 68.828 208.22C68.828 208.313 68.8234 208.416 68.814 208.528C68.814 208.631 68.8094 208.747 68.8 208.878H63.396C63.4427 209.55 63.662 210.063 64.054 210.418C64.4554 210.763 64.9174 210.936 65.44 210.936C65.86 210.936 66.21 210.843 66.49 210.656C66.7794 210.46 66.994 210.199 67.134 209.872H68.618C68.4314 210.525 68.058 211.071 67.498 211.51C66.9474 211.949 66.2614 212.168 65.44 212.168ZM65.44 206.106C64.9454 206.106 64.5067 206.255 64.124 206.554C63.7414 206.843 63.508 207.282 63.424 207.87H67.344C67.316 207.329 67.1247 206.899 66.77 206.582C66.4154 206.265 65.972 206.106 65.44 206.106ZM73.3778 212.168C72.6965 212.168 72.0851 212.014 71.5438 211.706C71.0118 211.398 70.5918 210.973 70.2838 210.432C69.9851 209.881 69.8358 209.247 69.8358 208.528C69.8358 207.809 69.9851 207.179 70.2838 206.638C70.5918 206.087 71.0118 205.658 71.5438 205.35C72.0851 205.042 72.6965 204.888 73.3778 204.888C74.2365 204.888 74.9551 205.112 75.5338 205.56C76.1218 206.008 76.4998 206.615 76.6678 207.38H75.1138C75.0205 206.997 74.8151 206.699 74.4978 206.484C74.1805 206.269 73.8071 206.162 73.3778 206.162C73.0138 206.162 72.6778 206.255 72.3698 206.442C72.0618 206.619 71.8145 206.885 71.6278 207.24C71.4411 207.585 71.3478 208.015 71.3478 208.528C71.3478 209.041 71.4411 209.475 71.6278 209.83C71.8145 210.175 72.0618 210.441 72.3698 210.628C72.6778 210.815 73.0138 210.908 73.3778 210.908C73.8071 210.908 74.1805 210.801 74.4978 210.586C74.8151 210.371 75.0205 210.068 75.1138 209.676H76.6678C76.5091 210.423 76.1358 211.025 75.5478 211.482C74.9598 211.939 74.2365 212.168 73.3778 212.168ZM80.7725 212C80.0912 212 79.5499 211.837 79.1485 211.51C78.7472 211.174 78.5465 210.581 78.5465 209.732V206.302H77.3565V205.056H78.5465L78.7285 203.292H80.0305V205.056H81.9905V206.302H80.0305V209.732C80.0305 210.115 80.1099 210.381 80.2685 210.53C80.4365 210.67 80.7212 210.74 81.1225 210.74H81.9205V212H80.7725ZM87.874 212L85.83 205.056H87.314L88.658 210.292L90.17 205.056H91.822L93.334 210.292L94.678 205.056H96.162L94.118 212H92.592L90.996 206.54L89.4 212H87.874ZM97.9445 203.74C97.6645 203.74 97.4312 203.656 97.2445 203.488C97.0672 203.311 96.9785 203.091 96.9785 202.83C96.9785 202.569 97.0672 202.354 97.2445 202.186C97.4312 202.009 97.6645 201.92 97.9445 201.92C98.2245 201.92 98.4532 202.009 98.6305 202.186C98.8172 202.354 98.9105 202.569 98.9105 202.83C98.9105 203.091 98.8172 203.311 98.6305 203.488C98.4532 203.656 98.2245 203.74 97.9445 203.74ZM97.2025 212V205.056H98.6865V212H97.2025ZM103.278 212C102.596 212 102.055 211.837 101.654 211.51C101.252 211.174 101.052 210.581 101.052 209.732V206.302H99.8615V205.056H101.052L101.234 203.292H102.536V205.056H104.496V206.302H102.536V209.732C102.536 210.115 102.615 210.381 102.774 210.53C102.942 210.67 103.226 210.74 103.628 210.74H104.426V212H103.278ZM105.746 212V201.92H107.23V206.176C107.463 205.775 107.785 205.462 108.196 205.238C108.616 205.005 109.078 204.888 109.582 204.888C110.412 204.888 111.066 205.149 111.542 205.672C112.018 206.195 112.256 206.974 112.256 208.01V212H110.786V208.164C110.786 206.82 110.249 206.148 109.176 206.148C108.616 206.148 108.149 206.344 107.776 206.736C107.412 207.128 107.23 207.688 107.23 208.416V212H105.746ZM119.925 212L116.299 202.2H117.881L120.821 210.46L123.775 202.2H125.343L121.717 212H119.925ZM128.648 212.168C127.967 212.168 127.36 212.019 126.828 211.72C126.305 211.412 125.895 210.987 125.596 210.446C125.297 209.905 125.148 209.275 125.148 208.556C125.148 207.828 125.293 207.189 125.582 206.638C125.881 206.087 126.291 205.658 126.814 205.35C127.346 205.042 127.962 204.888 128.662 204.888C129.343 204.888 129.936 205.042 130.44 205.35C130.944 205.649 131.336 206.05 131.616 206.554C131.896 207.058 132.036 207.613 132.036 208.22C132.036 208.313 132.031 208.416 132.022 208.528C132.022 208.631 132.017 208.747 132.008 208.878H126.604C126.651 209.55 126.87 210.063 127.262 210.418C127.663 210.763 128.125 210.936 128.648 210.936C129.068 210.936 129.418 210.843 129.698 210.656C129.987 210.46 130.202 210.199 130.342 209.872H131.826C131.639 210.525 131.266 211.071 130.706 211.51C130.155 211.949 129.469 212.168 128.648 212.168ZM128.648 206.106C128.153 206.106 127.715 206.255 127.332 206.554C126.949 206.843 126.716 207.282 126.632 207.87H130.552C130.524 207.329 130.333 206.899 129.978 206.582C129.623 206.265 129.18 206.106 128.648 206.106ZM133.296 212V205.056H134.612L134.724 206.274C134.938 205.845 135.251 205.509 135.662 205.266C136.082 205.014 136.562 204.888 137.104 204.888C137.944 204.888 138.602 205.149 139.078 205.672C139.563 206.195 139.806 206.974 139.806 208.01V212H138.336V208.164C138.336 206.82 137.785 206.148 136.684 206.148C136.133 206.148 135.676 206.344 135.312 206.736C134.957 207.128 134.78 207.688 134.78 208.416V212H133.296ZM143.835 212.168C142.995 212.168 142.333 211.907 141.847 211.384C141.371 210.861 141.133 210.082 141.133 209.046V205.056H142.617V208.892C142.617 210.236 143.168 210.908 144.269 210.908C144.82 210.908 145.273 210.712 145.627 210.32C145.982 209.928 146.159 209.368 146.159 208.64V205.056H147.643V212H146.327L146.215 210.782C146.001 211.211 145.683 211.552 145.263 211.804C144.853 212.047 144.377 212.168 143.835 212.168ZM152.023 212.168C151.146 212.168 150.423 211.953 149.853 211.524C149.284 211.095 148.957 210.525 148.873 209.816H150.371C150.446 210.133 150.623 210.409 150.903 210.642C151.183 210.866 151.552 210.978 152.009 210.978C152.457 210.978 152.784 210.885 152.989 210.698C153.195 210.511 153.297 210.297 153.297 210.054C153.297 209.699 153.153 209.461 152.863 209.34C152.583 209.209 152.191 209.093 151.687 208.99C151.295 208.906 150.903 208.794 150.511 208.654C150.129 208.514 149.807 208.318 149.545 208.066C149.293 207.805 149.167 207.455 149.167 207.016C149.167 206.409 149.401 205.905 149.867 205.504C150.334 205.093 150.987 204.888 151.827 204.888C152.602 204.888 153.227 205.075 153.703 205.448C154.189 205.821 154.473 206.349 154.557 207.03H153.129C153.083 206.731 152.943 206.498 152.709 206.33C152.485 206.162 152.182 206.078 151.799 206.078C151.426 206.078 151.137 206.157 150.931 206.316C150.726 206.465 150.623 206.661 150.623 206.904C150.623 207.147 150.763 207.338 151.043 207.478C151.333 207.618 151.711 207.744 152.177 207.856C152.644 207.959 153.073 208.08 153.465 208.22C153.867 208.351 154.189 208.547 154.431 208.808C154.674 209.069 154.795 209.452 154.795 209.956C154.805 210.591 154.557 211.118 154.053 211.538C153.559 211.958 152.882 212.168 152.023 212.168ZM161.441 212.014L158.795 202.2H160.391L162.337 210.32L164.577 202.2H166.215L168.385 210.32L170.331 202.2H171.927L169.239 212H167.503L165.361 204.314L163.149 212L161.441 212.014ZM175.476 212.168C174.813 212.168 174.216 212.019 173.684 211.72C173.161 211.412 172.746 210.987 172.438 210.446C172.13 209.895 171.976 209.256 171.976 208.528C171.976 207.8 172.13 207.165 172.438 206.624C172.755 206.073 173.18 205.649 173.712 205.35C174.244 205.042 174.836 204.888 175.49 204.888C176.152 204.888 176.745 205.042 177.268 205.35C177.8 205.649 178.22 206.073 178.528 206.624C178.845 207.165 179.004 207.8 179.004 208.528C179.004 209.256 178.845 209.895 178.528 210.446C178.22 210.987 177.8 211.412 177.268 211.72C176.736 212.019 176.138 212.168 175.476 212.168ZM175.476 210.894C175.83 210.894 176.157 210.805 176.456 210.628C176.764 210.451 177.011 210.189 177.198 209.844C177.384 209.489 177.478 209.051 177.478 208.528C177.478 208.005 177.384 207.571 177.198 207.226C177.02 206.871 176.778 206.605 176.47 206.428C176.171 206.251 175.844 206.162 175.49 206.162C175.135 206.162 174.804 206.251 174.496 206.428C174.197 206.605 173.954 206.871 173.768 207.226C173.581 207.571 173.488 208.005 173.488 208.528C173.488 209.051 173.581 209.489 173.768 209.844C173.954 210.189 174.197 210.451 174.496 210.628C174.794 210.805 175.121 210.894 175.476 210.894ZM180.329 212V205.056H181.659L181.785 206.372C182.027 205.915 182.363 205.555 182.793 205.294C183.231 205.023 183.759 204.888 184.375 204.888V206.442H183.969C183.558 206.442 183.189 206.512 182.863 206.652C182.545 206.783 182.289 207.011 182.093 207.338C181.906 207.655 181.813 208.099 181.813 208.668V212H180.329ZM185.367 212V201.92H186.851V212H185.367ZM191.614 212.168C190.942 212.168 190.349 212.009 189.836 211.692C189.323 211.375 188.921 210.941 188.632 210.39C188.343 209.839 188.198 209.214 188.198 208.514C188.198 207.814 188.343 207.193 188.632 206.652C188.921 206.101 189.323 205.672 189.836 205.364C190.359 205.047 190.956 204.888 191.628 204.888C192.179 204.888 192.659 204.995 193.07 205.21C193.49 205.425 193.817 205.728 194.05 206.12V201.92H195.534V212H194.204L194.05 210.922C193.826 211.249 193.518 211.538 193.126 211.79C192.734 212.042 192.23 212.168 191.614 212.168ZM191.88 210.88C192.515 210.88 193.033 210.661 193.434 210.222C193.845 209.783 194.05 209.219 194.05 208.528C194.05 207.828 193.845 207.263 193.434 206.834C193.033 206.395 192.515 206.176 191.88 206.176C191.245 206.176 190.723 206.395 190.312 206.834C189.901 207.263 189.696 207.828 189.696 208.528C189.696 208.985 189.789 209.391 189.976 209.746C190.163 210.101 190.419 210.381 190.746 210.586C191.082 210.782 191.46 210.88 191.88 210.88ZM197.433 209.102L197.265 202.2H198.861L198.693 209.102H197.433ZM198.105 212.084C197.816 212.084 197.578 211.995 197.391 211.818C197.214 211.631 197.125 211.412 197.125 211.16C197.125 210.899 197.214 210.679 197.391 210.502C197.578 210.315 197.816 210.222 198.105 210.222C198.376 210.222 198.6 210.315 198.777 210.502C198.964 210.679 199.057 210.899 199.057 211.16C199.057 211.412 198.964 211.631 198.777 211.818C198.6 211.995 198.376 212.084 198.105 212.084Z" fill="#E9EDF7"/>
<path d="M61.1286 161.192C60.3073 161.192 59.566 161.032 58.9046 160.712C58.2433 160.381 57.7153 159.885 57.3206 159.224C56.9366 158.563 56.7446 157.725 56.7446 156.712V149.8H58.7926V156.728C58.7926 157.603 59.0006 158.253 59.4166 158.68C59.8433 159.107 60.43 159.32 61.1766 159.32C61.9126 159.32 62.494 159.107 62.9206 158.68C63.3473 158.253 63.5606 157.603 63.5606 156.728V149.8H65.6086V156.712C65.6086 157.725 65.406 158.563 65.0006 159.224C64.5953 159.885 64.0513 160.381 63.3686 160.712C62.6966 161.032 61.95 161.192 61.1286 161.192ZM67.3313 164.52V153.064H69.1553L69.3793 154.2C69.6353 153.848 69.9713 153.539 70.3873 153.272C70.8139 153.005 71.3633 152.872 72.0353 152.872C72.7819 152.872 73.4486 153.053 74.0353 153.416C74.6219 153.779 75.0859 154.275 75.4273 154.904C75.7686 155.533 75.9393 156.248 75.9393 157.048C75.9393 157.848 75.7686 158.563 75.4273 159.192C75.0859 159.811 74.6219 160.301 74.0353 160.664C73.4486 161.016 72.7819 161.192 72.0353 161.192C71.4379 161.192 70.9153 161.08 70.4673 160.856C70.0193 160.632 69.6566 160.317 69.3793 159.912V164.52H67.3313ZM71.6033 159.4C72.2539 159.4 72.7926 159.181 73.2193 158.744C73.6459 158.307 73.8593 157.741 73.8593 157.048C73.8593 156.355 73.6459 155.784 73.2193 155.336C72.7926 154.888 72.2539 154.664 71.6033 154.664C70.9419 154.664 70.3979 154.888 69.9713 155.336C69.5553 155.773 69.3473 156.339 69.3473 157.032C69.3473 157.725 69.5553 158.296 69.9713 158.744C70.3979 159.181 70.9419 159.4 71.6033 159.4ZM80.3088 158.632C79.9248 158.632 79.5674 158.589 79.2368 158.504L78.6448 159.096C78.8261 159.192 79.0714 159.272 79.3808 159.336C79.6901 159.4 80.1914 159.464 80.8848 159.528C81.9408 159.624 82.7088 159.875 83.1888 160.28C83.6688 160.685 83.9088 161.245 83.9088 161.96C83.9088 162.429 83.7808 162.872 83.5248 163.288C83.2688 163.715 82.8741 164.056 82.3408 164.312C81.8074 164.579 81.1248 164.712 80.2928 164.712C79.1621 164.712 78.2501 164.499 77.5568 164.072C76.8634 163.656 76.5168 163.027 76.5168 162.184C76.5168 161.469 76.8634 160.851 77.5568 160.328C77.3434 160.232 77.1568 160.131 76.9968 160.024C76.8474 159.917 76.7141 159.805 76.5968 159.688V159.32L77.9888 157.848C77.3701 157.304 77.0608 156.605 77.0608 155.752C77.0608 155.219 77.1888 154.733 77.4448 154.296C77.7114 153.859 78.0848 153.512 78.5648 153.256C79.0448 153 79.6261 152.872 80.3088 152.872C80.7568 152.872 81.1728 152.936 81.5568 153.064H84.5648V154.312L83.2048 154.408C83.4181 154.813 83.5248 155.261 83.5248 155.752C83.5248 156.285 83.3968 156.771 83.1408 157.208C82.8848 157.645 82.5114 157.992 82.0208 158.248C81.5408 158.504 80.9701 158.632 80.3088 158.632ZM80.3088 157.064C80.7248 157.064 81.0661 156.952 81.3328 156.728C81.6101 156.504 81.7488 156.184 81.7488 155.768C81.7488 155.352 81.6101 155.032 81.3328 154.808C81.0661 154.584 80.7248 154.472 80.3088 154.472C79.8714 154.472 79.5194 154.584 79.2528 154.808C78.9861 155.032 78.8528 155.352 78.8528 155.768C78.8528 156.184 78.9861 156.504 79.2528 156.728C79.5194 156.952 79.8714 157.064 80.3088 157.064ZM78.3888 161.976C78.3888 162.371 78.5701 162.664 78.9328 162.856C79.3061 163.059 79.7594 163.16 80.2928 163.16C80.8048 163.16 81.2208 163.053 81.5408 162.84C81.8608 162.637 82.0208 162.36 82.0208 162.008C82.0208 161.72 81.9141 161.48 81.7008 161.288C81.4981 161.096 81.0874 160.979 80.4688 160.936C80.0314 160.904 79.6261 160.856 79.2528 160.792C78.9434 160.963 78.7194 161.149 78.5808 161.352C78.4528 161.555 78.3888 161.763 78.3888 161.976ZM85.7381 161V153.064H87.5621L87.7541 154.552C88.0421 154.04 88.4315 153.635 88.9221 153.336C89.4235 153.027 90.0101 152.872 90.6821 152.872V155.032H90.1061C89.6581 155.032 89.2581 155.101 88.9061 155.24C88.5541 155.379 88.2768 155.619 88.0741 155.96C87.8821 156.301 87.7861 156.776 87.7861 157.384V161H85.7381ZM94.4979 161.192C93.8152 161.192 93.2552 161.085 92.8179 160.872C92.3805 160.648 92.0552 160.355 91.8419 159.992C91.6285 159.629 91.5219 159.229 91.5219 158.792C91.5219 158.056 91.8099 157.459 92.3859 157C92.9619 156.541 93.8259 156.312 94.9779 156.312H96.9939V156.12C96.9939 155.576 96.8392 155.176 96.5299 154.92C96.2205 154.664 95.8365 154.536 95.3779 154.536C94.9619 154.536 94.5992 154.637 94.2899 154.84C93.9805 155.032 93.7885 155.32 93.7139 155.704H91.7139C91.7672 155.128 91.9592 154.627 92.2899 154.2C92.6312 153.773 93.0685 153.448 93.6019 153.224C94.1352 152.989 94.7325 152.872 95.3939 152.872C96.5245 152.872 97.4152 153.155 98.0659 153.72C98.7165 154.285 99.0419 155.085 99.0419 156.12V161H97.2979L97.1059 159.72C96.8712 160.147 96.5405 160.499 96.1139 160.776C95.6979 161.053 95.1592 161.192 94.4979 161.192ZM94.9619 159.592C95.5485 159.592 96.0019 159.4 96.3219 159.016C96.6525 158.632 96.8605 158.157 96.9459 157.592H95.2019C94.6579 157.592 94.2685 157.693 94.0339 157.896C93.7992 158.088 93.6819 158.328 93.6819 158.616C93.6819 158.925 93.7992 159.165 94.0339 159.336C94.2685 159.507 94.5779 159.592 94.9619 159.592ZM104.324 161.192C103.578 161.192 102.911 161.011 102.324 160.648C101.738 160.285 101.274 159.789 100.932 159.16C100.591 158.531 100.42 157.816 100.42 157.016C100.42 156.216 100.591 155.507 100.932 154.888C101.274 154.259 101.738 153.768 102.324 153.416C102.911 153.053 103.578 152.872 104.324 152.872C104.922 152.872 105.444 152.984 105.892 153.208C106.34 153.432 106.703 153.747 106.98 154.152V149.48H109.028V161H107.204L106.98 159.864C106.724 160.216 106.383 160.525 105.956 160.792C105.54 161.059 104.996 161.192 104.324 161.192ZM104.756 159.4C105.418 159.4 105.956 159.181 106.372 158.744C106.799 158.296 107.012 157.725 107.012 157.032C107.012 156.339 106.799 155.773 106.372 155.336C105.956 154.888 105.418 154.664 104.756 154.664C104.106 154.664 103.567 154.883 103.14 155.32C102.714 155.757 102.5 156.323 102.5 157.016C102.5 157.709 102.714 158.28 103.14 158.728C103.567 159.176 104.106 159.4 104.756 159.4ZM114.65 161.192C113.85 161.192 113.14 161.021 112.522 160.68C111.903 160.339 111.418 159.859 111.066 159.24C110.714 158.621 110.538 157.907 110.538 157.096C110.538 156.275 110.708 155.544 111.05 154.904C111.402 154.264 111.882 153.768 112.49 153.416C113.108 153.053 113.834 152.872 114.666 152.872C115.444 152.872 116.132 153.043 116.73 153.384C117.327 153.725 117.791 154.195 118.122 154.792C118.463 155.379 118.634 156.035 118.634 156.76C118.634 156.877 118.628 157 118.618 157.128C118.618 157.256 118.612 157.389 118.602 157.528H112.57C112.612 158.147 112.826 158.632 113.21 158.984C113.604 159.336 114.079 159.512 114.634 159.512C115.05 159.512 115.396 159.421 115.674 159.24C115.962 159.048 116.175 158.803 116.314 158.504H118.394C118.244 159.005 117.994 159.464 117.642 159.88C117.3 160.285 116.874 160.605 116.362 160.84C115.86 161.075 115.29 161.192 114.65 161.192ZM114.666 154.536C114.164 154.536 113.722 154.68 113.338 154.968C112.954 155.245 112.708 155.672 112.602 156.248H116.554C116.522 155.725 116.33 155.309 115.978 155C115.626 154.691 115.188 154.536 114.666 154.536ZM127.065 161C126.233 161 125.566 160.797 125.065 160.392C124.563 159.987 124.313 159.267 124.313 158.232V154.776H122.953V153.064H124.313L124.553 150.936H126.361V153.064H128.505V154.776H126.361V158.248C126.361 158.632 126.441 158.899 126.601 159.048C126.771 159.187 127.059 159.256 127.465 159.256H128.457V161H127.065ZM133.548 161.192C132.78 161.192 132.087 161.016 131.468 160.664C130.86 160.312 130.375 159.827 130.012 159.208C129.66 158.579 129.484 157.853 129.484 157.032C129.484 156.211 129.665 155.491 130.028 154.872C130.391 154.243 130.876 153.752 131.484 153.4C132.103 153.048 132.796 152.872 133.564 152.872C134.321 152.872 135.004 153.048 135.612 153.4C136.231 153.752 136.716 154.243 137.068 154.872C137.431 155.491 137.612 156.211 137.612 157.032C137.612 157.853 137.431 158.579 137.068 159.208C136.716 159.827 136.231 160.312 135.612 160.664C134.993 161.016 134.305 161.192 133.548 161.192ZM133.548 159.416C134.081 159.416 134.545 159.219 134.94 158.824C135.335 158.419 135.532 157.821 135.532 157.032C135.532 156.243 135.335 155.651 134.94 155.256C134.545 154.851 134.087 154.648 133.564 154.648C133.02 154.648 132.551 154.851 132.156 155.256C131.772 155.651 131.58 156.243 131.58 157.032C131.58 157.821 131.772 158.419 132.156 158.824C132.551 159.219 133.015 159.416 133.548 159.416ZM142.664 161V149.8H146.808C147.704 149.8 148.445 149.949 149.032 150.248C149.618 150.547 150.056 150.957 150.344 151.48C150.632 152.003 150.776 152.589 150.776 153.24C150.776 153.859 150.637 154.429 150.36 154.952C150.082 155.464 149.65 155.88 149.064 156.2C148.477 156.509 147.725 156.664 146.808 156.664H144.712V161H142.664ZM144.712 155H146.68C147.394 155 147.906 154.845 148.216 154.536C148.536 154.216 148.696 153.784 148.696 153.24C148.696 152.685 148.536 152.253 148.216 151.944C147.906 151.624 147.394 151.464 146.68 151.464H144.712V155ZM152.062 161V149.8H156.174C157.07 149.8 157.806 149.955 158.382 150.264C158.969 150.563 159.406 150.973 159.694 151.496C159.982 152.008 160.126 152.579 160.126 153.208C160.126 153.891 159.945 154.515 159.582 155.08C159.23 155.645 158.676 156.056 157.918 156.312L160.238 161H157.886L155.806 156.584H154.11V161H152.062ZM154.11 155.08H156.046C156.729 155.08 157.23 154.915 157.55 154.584C157.87 154.253 158.03 153.816 158.03 153.272C158.03 152.739 157.87 152.312 157.55 151.992C157.241 151.672 156.734 151.512 156.03 151.512H154.11V155.08ZM166.959 161.192C165.839 161.192 164.858 160.947 164.015 160.456C163.183 159.965 162.527 159.288 162.047 158.424C161.578 157.549 161.343 156.541 161.343 155.4C161.343 154.259 161.578 153.256 162.047 152.392C162.527 151.517 163.183 150.835 164.015 150.344C164.858 149.853 165.839 149.608 166.959 149.608C168.068 149.608 169.044 149.853 169.887 150.344C170.73 150.835 171.386 151.517 171.855 152.392C172.324 153.256 172.559 154.259 172.559 155.4C172.559 156.541 172.324 157.549 171.855 158.424C171.386 159.288 170.73 159.965 169.887 160.456C169.044 160.947 168.068 161.192 166.959 161.192ZM166.959 159.352C168.026 159.352 168.874 159 169.503 158.296C170.143 157.592 170.463 156.627 170.463 155.4C170.463 154.173 170.143 153.208 169.503 152.504C168.874 151.8 168.026 151.448 166.959 151.448C165.892 151.448 165.039 151.8 164.399 152.504C163.759 153.208 163.439 154.173 163.439 155.4C163.439 156.627 163.759 157.592 164.399 158.296C165.039 159 165.892 159.352 166.959 159.352Z" fill="white"/>
<g filter="url(#filter0_d_439_1161)">
<circle cx="115" cy="69" r="47" fill="url(#paint1_linear_439_1161)"/>
<circle cx="115" cy="69" r="44.5" stroke="white" stroke-width="5"/>
</g>
<path d="M104.092 77.3033H124.818V86.3143H104.092V77.3033Z" fill="white"/>
<path d="M125.538 79.1956C125.538 76.2322 124.371 73.3901 122.292 71.2947C120.214 69.1992 117.394 68.022 114.455 68.022C111.515 68.022 108.696 69.1992 106.618 71.2947C104.539 73.3901 103.371 76.2322 103.371 79.1956L114.455 79.1956H125.538Z" fill="white"/>
<path fill-rule="evenodd" clip-rule="evenodd" d="M114.5 81.989C120.845 81.989 125.989 76.8452 125.989 70.5C125.989 64.1548 120.845 59.011 114.5 59.011C108.155 59.011 103.011 64.1548 103.011 70.5C103.011 76.8452 108.155 81.989 114.5 81.989ZM114.5 91C125.822 91 135 81.8218 135 70.5C135 59.1782 125.822 50 114.5 50C103.178 50 94 59.1782 94 70.5C94 81.8218 103.178 91 114.5 91Z" fill="white"/>
<defs>
<filter id="filter0_d_439_1161" x="28" y="0" width="174" height="174" filterUnits="userSpaceOnUse" color-interpolation-filters="sRGB">
<feFlood flood-opacity="0" result="BackgroundImageFix"/>
<feColorMatrix in="SourceAlpha" type="matrix" values="0 0 0 0 0 0 0 0 0 0 0 0 0 0 0 0 0 0 127 0" result="hardAlpha"/>
<feOffset dy="18"/>
<feGaussianBlur stdDeviation="20"/>
<feColorMatrix type="matrix" values="0 0 0 0 0.439216 0 0 0 0 0.564706 0 0 0 0 0.690196 0 0 0 0.12 0"/>
<feBlend mode="normal" in2="BackgroundImageFix" result="effect1_dropShadow_439_1161"/>
<feBlend mode="normal" in="SourceGraphic" in2="effect1_dropShadow_439_1161" result="shape"/>
</filter>
<linearGradient id="paint0_linear_439_1161" x1="0" y1="70" x2="186.885" y2="294.262" gradientUnits="userSpaceOnUse">
<stop stop-color="#868CFF"/>
<stop offset="1" stop-color="#4318FF"/>
</linearGradient>
<linearGradient id="paint1_linear_439_1161" x1="68" y1="22" x2="162" y2="116" gradientUnits="userSpaceOnUse">
<stop stop-color="#868CFF"/>
<stop offset="1" stop-color="#4318FF"/>
</linearGradient>
</defs>
</svg>
